<?xml version="1.0" encoding="UTF-8" standalone="no"?>
<!DOCTYPE svg PUBLIC "-//W3C//DTD SVG 1.1//EN" "http://www.w3.org/Graphics/SVG/1.1/DTD/svg11.dtd">
<svg width="100%" height="100%" viewBox="0 0 284 284" version="1.1" xmlns="http://www.w3.org/2000/svg" xmlns:xlink="http://www.w3.org/1999/xlink" xml:space="preserve" xmlns:serif="http://www.serif.com/" style="fill-rule:evenodd;clip-rule:evenodd;stroke-linejoin:round;stroke-miterlimit:2;">
    <rect id="Artboard1" x="0" y="0" width="283.465" height="283.465" style="fill:none;"/>
    <clipPath id="_clip1">
        <rect id="Artboard11" serif:id="Artboard1" x="0" y="0" width="283.465" height="283.465"/>
    </clipPath>
    <g clip-path="url(#_clip1)">
        <g>
            <g>
                <g transform="matrix(1,0,0,1.21758,-6.06724,-30.8385)">
                    <rect x="54.082" y="0" width="17.132" height="283.465" style="fill:url(#_Radial2);"/>
                </g>
                <g transform="matrix(1,0,0,1.21758,-62.648,-30.8385)">
                    <rect x="54.082" y="0" width="17.132" height="283.465" style="fill:url(#_Radial3);"/>
                </g>
                <g transform="matrix(1,0,0,1.21758,50.5135,-30.8385)">
                    <rect x="54.082" y="0" width="17.132" height="283.465" style="fill:url(#_Radial4);"/>
                </g>
                <g transform="matrix(1,0,0,1.21758,107.094,-30.8385)">
                    <rect x="54.082" y="0" width="17.132" height="283.465" style="fill:url(#_Radial5);"/>
                </g>
                <g transform="matrix(1,0,0,1.21758,163.675,-30.8385)">
                    <rect x="54.082" y="0" width="17.132" height="283.465" style="fill:url(#_Radial6);"/>
                </g>
                <g transform="matrix(1,0,0,1.21758,220.817,-30.8385)">
                    <rect x="54.082" y="0" width="17.132" height="283.465" style="fill:url(#_Radial7);"/>
                </g>
            </g>
            <g>
                <g transform="matrix(1,0,0,1,0,-30.8385)">
                    <g transform="matrix(1,0,0,1,-75.0714,-101.549)">
                        <path d="M75.071,101.549l30.839,61.677l-61.677,-0l30.838,-61.677Z" style="fill:url(#_Linear8);"/>
                    </g>
                    <g transform="matrix(-1,-1.22465e-16,1.22465e-16,-1,75.0714,163.226)">
                        <path d="M75.071,101.549l30.839,61.677l-61.677,-0l30.838,-61.677Z" style="fill:url(#_Linear9);"/>
                    </g>
                </g>
                <g transform="matrix(1,0,0,1,-22.5401,-30.8385)">
                    <g transform="matrix(1,0,0,1,4.04948,-101.549)">
                        <path d="M75.071,101.549l30.839,61.677l-61.677,-0l30.838,-61.677Z" style="fill:url(#_Linear10);"/>
                    </g>
                    <g transform="matrix(-1,-1.22465e-16,1.22465e-16,-1,154.192,163.226)">
                        <path d="M75.071,101.549l30.839,61.677l-61.677,-0l30.838,-61.677Z" style="fill:url(#_Linear11);"/>
                    </g>
                </g>
                <g transform="matrix(1,0,0,1,-14.8648,-30.8385)">
                    <g transform="matrix(1,0,0,1,52.9549,-101.549)">
                        <path d="M75.071,101.549l30.839,61.677l-61.677,-0l30.838,-61.677Z" style="fill:url(#_Linear12);"/>
                    </g>
                    <g transform="matrix(-1,-1.22465e-16,1.22465e-16,-1,203.098,163.226)">
                        <path d="M75.071,101.549l30.839,61.677l-61.677,-0l30.838,-61.677Z" style="fill:url(#_Linear13);"/>
                    </g>
                </g>
                <g transform="matrix(1,0,0,1,-6.5664,-30.8385)">
                    <g transform="matrix(1,0,0,1,101.237,-101.549)">
                        <path d="M75.071,101.549l30.839,61.677l-61.677,-0l30.838,-61.677Z" style="fill:url(#_Linear14);"/>
                    </g>
                    <g transform="matrix(-1,-1.22465e-16,1.22465e-16,-1,251.38,163.226)">
                        <path d="M75.071,101.549l30.839,61.677l-61.677,-0l30.838,-61.677Z" style="fill:url(#_Linear15);"/>
                    </g>
                </g>
                <g transform="matrix(1,0,0,1,5.09614,-30.8385)">
                    <g transform="matrix(1,0,0,1,146.156,-101.549)">
                        <path d="M75.071,101.549l30.839,61.677l-61.677,-0l30.838,-61.677Z" style="fill:url(#_Linear16);"/>
                    </g>
                    <g transform="matrix(-1,-1.22465e-16,1.22465e-16,-1,296.298,163.226)">
                        <path d="M75.071,101.549l30.839,61.677l-61.677,-0l30.838,-61.677Z" style="fill:url(#_Linear17);"/>
                    </g>
                </g>
                <g transform="matrix(1,0,0,1,-2.84217e-14,-30.8385)">
                    <g transform="matrix(1,0,0,1,207.832,-101.549)">
                        <path d="M75.071,101.549l30.839,61.677l-61.677,-0l30.838,-61.677Z" style="fill:url(#_Linear18);"/>
                    </g>
                    <g transform="matrix(-1,-1.22465e-16,1.22465e-16,-1,357.975,163.226)">
                        <path d="M75.071,101.549l30.839,61.677l-61.677,-0l30.838,-61.677Z" style="fill:url(#_Linear19);"/>
                    </g>
                </g>
            </g>
            <g transform="matrix(1,0,0,1,0,9.18924)">
                <g transform="matrix(1,0,0,1,0,30.8385)">
                    <g transform="matrix(1,0,0,1,-75.0714,-101.549)">
                        <path d="M75.071,101.549l30.839,61.677l-61.677,-0l30.838,-61.677Z" style="fill:url(#_Linear20);"/>
                    </g>
                    <g transform="matrix(-1,-1.22465e-16,1.22465e-16,-1,75.0714,163.226)">
                        <path d="M75.071,101.549l30.839,61.677l-61.677,-0l30.838,-61.677Z" style="fill:url(#_Linear21);"/>
                    </g>
                </g>
                <g transform="matrix(1,0,0,1,-22.5401,30.8385)">
                    <g transform="matrix(1,0,0,1,4.04948,-101.549)">
                        <path d="M75.071,101.549l30.839,61.677l-61.677,-0l30.838,-61.677Z" style="fill:url(#_Linear22);"/>
                    </g>
                    <g transform="matrix(-1,-1.22465e-16,1.22465e-16,-1,154.192,163.226)">
                        <path d="M75.071,101.549l30.839,61.677l-61.677,-0l30.838,-61.677Z" style="fill:url(#_Linear23);"/>
                    </g>
                </g>
                <g transform="matrix(1,0,0,1,-14.8648,30.8385)">
                    <g transform="matrix(1,0,0,1,52.9549,-101.549)">
                        <path d="M75.071,101.549l30.839,61.677l-61.677,-0l30.838,-61.677Z" style="fill:url(#_Linear24);"/>
                    </g>
                    <g transform="matrix(-1,-1.22465e-16,1.22465e-16,-1,203.098,163.226)">
                        <path d="M75.071,101.549l30.839,61.677l-61.677,-0l30.838,-61.677Z" style="fill:url(#_Linear25);"/>
                    </g>
                </g>
                <g transform="matrix(1,0,0,1,-6.5664,30.8385)">
                    <g transform="matrix(1,0,0,1,101.237,-101.549)">
                        <path d="M75.071,101.549l30.839,61.677l-61.677,-0l30.838,-61.677Z" style="fill:url(#_Linear26);"/>
                    </g>
                    <g transform="matrix(-1,-1.22465e-16,1.22465e-16,-1,251.38,163.226)">
                        <path d="M75.071,101.549l30.839,61.677l-61.677,-0l30.838,-61.677Z" style="fill:url(#_Linear27);"/>
                    </g>
                </g>
                <g transform="matrix(1,0,0,1,5.09614,30.8385)">
                    <g transform="matrix(1,0,0,1,146.156,-101.549)">
                        <path d="M75.071,101.549l30.839,61.677l-61.677,-0l30.838,-61.677Z" style="fill:url(#_Linear28);"/>
                    </g>
                    <g transform="matrix(-1,-1.22465e-16,1.22465e-16,-1,296.298,163.226)">
                        <path d="M75.071,101.549l30.839,61.677l-61.677,-0l30.838,-61.677Z" style="fill:url(#_Linear29);"/>
                    </g>
                </g>
                <g transform="matrix(1,0,0,1,-2.84217e-14,30.8385)">
                    <g transform="matrix(1,0,0,1,207.832,-101.549)">
                        <path d="M75.071,101.549l30.839,61.677l-61.677,-0l30.838,-61.677Z" style="fill:url(#_Linear30);"/>
                    </g>
                    <g transform="matrix(-1,-1.22465e-16,1.22465e-16,-1,357.975,163.226)">
                        <path d="M75.071,101.549l30.839,61.677l-61.677,-0l30.838,-61.677Z" style="fill:url(#_Linear31);"/>
                    </g>
                </g>
            </g>
            <g transform="matrix(1,0,0,1,0,18.3785)">
                <g transform="matrix(-1,-1.22465e-16,1.22465e-16,-1,282.904,154.192)">
                    <g transform="matrix(1,0,0,1,-75.0714,-101.549)">
                        <path d="M75.071,101.549l30.839,61.677l-61.677,-0l30.838,-61.677Z" style="fill:url(#_Linear32);"/>
                    </g>
                    <g transform="matrix(-1,-1.22465e-16,1.22465e-16,-1,75.0714,163.226)">
                        <path d="M75.071,101.549l30.839,61.677l-61.677,-0l30.838,-61.677Z" style="fill:url(#_Linear33);"/>
                    </g>
                </g>
                <g transform="matrix(-1,-1.22465e-16,1.22465e-16,-1,305.444,154.192)">
                    <g transform="matrix(1,0,0,1,4.04948,-101.549)">
                        <path d="M75.071,101.549l30.839,61.677l-61.677,-0l30.838,-61.677Z" style="fill:url(#_Linear34);"/>
                    </g>
                    <g transform="matrix(-1,-1.22465e-16,1.22465e-16,-1,154.192,163.226)">
                        <path d="M75.071,101.549l30.839,61.677l-61.677,-0l30.838,-61.677Z" style="fill:url(#_Linear35);"/>
                    </g>
                </g>
                <g transform="matrix(-1,-1.22465e-16,1.22465e-16,-1,297.769,154.192)">
                    <g transform="matrix(1,0,0,1,52.9549,-101.549)">
                        <path d="M75.071,101.549l30.839,61.677l-61.677,-0l30.838,-61.677Z" style="fill:url(#_Linear36);"/>
                    </g>
                    <g transform="matrix(-1,-1.22465e-16,1.22465e-16,-1,203.098,163.226)">
                        <path d="M75.071,101.549l30.839,61.677l-61.677,-0l30.838,-61.677Z" style="fill:url(#_Linear37);"/>
                    </g>
                </g>
                <g transform="matrix(-1,-1.22465e-16,1.22465e-16,-1,289.47,154.192)">
                    <g transform="matrix(1,0,0,1,101.237,-101.549)">
                        <path d="M75.071,101.549l30.839,61.677l-61.677,-0l30.838,-61.677Z" style="fill:url(#_Linear38);"/>
                    </g>
                    <g transform="matrix(-1,-1.22465e-16,1.22465e-16,-1,251.38,163.226)">
                        <path d="M75.071,101.549l30.839,61.677l-61.677,-0l30.838,-61.677Z" style="fill:url(#_Linear39);"/>
                    </g>
                </g>
                <g transform="matrix(-1,-1.22465e-16,1.22465e-16,-1,277.808,154.192)">
                    <g transform="matrix(1,0,0,1,146.156,-101.549)">
                        <path d="M75.071,101.549l30.839,61.677l-61.677,-0l30.838,-61.677Z" style="fill:url(#_Linear40);"/>
                    </g>
                    <g transform="matrix(-1,-1.22465e-16,1.22465e-16,-1,296.298,163.226)">
                        <path d="M75.071,101.549l30.839,61.677l-61.677,-0l30.838,-61.677Z" style="fill:url(#_Linear41);"/>
                    </g>
                </g>
                <g transform="matrix(-1,-1.22465e-16,1.22465e-16,-1,282.904,154.192)">
                    <g transform="matrix(1,0,0,1,207.832,-101.549)">
                        <path d="M75.071,101.549l30.839,61.677l-61.677,-0l30.838,-61.677Z" style="fill:url(#_Linear42);"/>
                    </g>
                    <g transform="matrix(-1,-1.22465e-16,1.22465e-16,-1,357.975,163.226)">
                        <path d="M75.071,101.549l30.839,61.677l-61.677,-0l30.838,-61.677Z" style="fill:url(#_Linear43);"/>
                    </g>
                </g>
            </g>
            <g transform="matrix(1,0,0,1,0,26.9447)">
                <g transform="matrix(-1,-3.67394e-16,3.67394e-16,-1,282.904,216.492)">
                    <g transform="matrix(1,0,0,1,-75.0714,-101.549)">
                        <path d="M75.071,101.549l30.839,61.677l-61.677,-0l30.838,-61.677Z" style="fill:url(#_Linear44);"/>
                    </g>
                    <g transform="matrix(-1,-1.22465e-16,1.22465e-16,-1,75.0714,163.226)">
                        <path d="M75.071,101.549l30.839,61.677l-61.677,-0l30.838,-61.677Z" style="fill:url(#_Linear45);"/>
                    </g>
                </g>
                <g transform="matrix(-1,-3.67394e-16,3.67394e-16,-1,305.444,216.492)">
                    <g transform="matrix(1,0,0,1,4.04948,-101.549)">
                        <path d="M75.071,101.549l30.839,61.677l-61.677,-0l30.838,-61.677Z" style="fill:url(#_Linear46);"/>
                    </g>
                    <g transform="matrix(-1,-1.22465e-16,1.22465e-16,-1,154.192,163.226)">
                        <path d="M75.071,101.549l30.839,61.677l-61.677,-0l30.838,-61.677Z" style="fill:url(#_Linear47);"/>
                    </g>
                </g>
                <g transform="matrix(-1,-3.67394e-16,3.67394e-16,-1,297.769,216.492)">
                    <g transform="matrix(1,0,0,1,52.9549,-101.549)">
                        <path d="M75.071,101.549l30.839,61.677l-61.677,-0l30.838,-61.677Z" style="fill:url(#_Linear48);"/>
                    </g>
                    <g transform="matrix(-1,-1.22465e-16,1.22465e-16,-1,203.098,163.226)">
                        <path d="M75.071,101.549l30.839,61.677l-61.677,-0l30.838,-61.677Z" style="fill:url(#_Linear49);"/>
                    </g>
                </g>
                <g transform="matrix(-1,-3.67394e-16,3.67394e-16,-1,289.47,216.492)">
                    <g transform="matrix(1,0,0,1,101.237,-101.549)">
                        <path d="M75.071,101.549l30.839,61.677l-61.677,-0l30.838,-61.677Z" style="fill:url(#_Linear50);"/>
                    </g>
                    <g transform="matrix(-1,-1.22465e-16,1.22465e-16,-1,251.38,163.226)">
                        <path d="M75.071,101.549l30.839,61.677l-61.677,-0l30.838,-61.677Z" style="fill:url(#_Linear51);"/>
                    </g>
                </g>
                <g transform="matrix(-1,-3.67394e-16,3.67394e-16,-1,277.808,216.492)">
                    <g transform="matrix(1,0,0,1,146.156,-101.549)">
                        <path d="M75.071,101.549l30.839,61.677l-61.677,-0l30.838,-61.677Z" style="fill:url(#_Linear52);"/>
                    </g>
                    <g transform="matrix(-1,-1.22465e-16,1.22465e-16,-1,296.298,163.226)">
                        <path d="M75.071,101.549l30.839,61.677l-61.677,-0l30.838,-61.677Z" style="fill:url(#_Linear53);"/>
                    </g>
                </g>
                <g transform="matrix(-1,-3.67394e-16,3.67394e-16,-1,282.904,216.492)">
                    <g transform="matrix(1,0,0,1,207.832,-101.549)">
                        <path d="M75.071,101.549l30.839,61.677l-61.677,-0l30.838,-61.677Z" style="fill:url(#_Linear54);"/>
                    </g>
                    <g transform="matrix(-1,-1.22465e-16,1.22465e-16,-1,357.975,163.226)">
                        <path d="M75.071,101.549l30.839,61.677l-61.677,-0l30.838,-61.677Z" style="fill:url(#_Linear55);"/>
                    </g>
                </g>
            </g>
            <g>
                <g transform="matrix(1,2.90699e-16,-2.90699e-16,1,1.13687e-13,252.626)">
                    <g transform="matrix(1,0,0,1,-75.0714,-101.549)">
                        <path d="M75.071,101.549l30.839,61.677l-61.677,-0l30.838,-61.677Z" style="fill:url(#_Linear56);"/>
                    </g>
                    <g transform="matrix(-1,-1.22465e-16,1.22465e-16,-1,75.0714,163.226)">
                        <path d="M75.071,101.549l30.839,61.677l-61.677,-0l30.838,-61.677Z" style="fill:url(#_Linear57);"/>
                    </g>
                </g>
                <g transform="matrix(1,2.90699e-16,-2.90699e-16,1,-22.5401,252.626)">
                    <g transform="matrix(1,0,0,1,4.04948,-101.549)">
                        <path d="M75.071,101.549l30.839,61.677l-61.677,-0l30.838,-61.677Z" style="fill:url(#_Linear58);"/>
                    </g>
                    <g transform="matrix(-1,-1.22465e-16,1.22465e-16,-1,154.192,163.226)">
                        <path d="M75.071,101.549l30.839,61.677l-61.677,-0l30.838,-61.677Z" style="fill:url(#_Linear59);"/>
                    </g>
                </g>
                <g transform="matrix(1,2.90699e-16,-2.90699e-16,1,-14.8648,252.626)">
                    <g transform="matrix(1,0,0,1,52.9549,-101.549)">
                        <path d="M75.071,101.549l30.839,61.677l-61.677,-0l30.838,-61.677Z" style="fill:url(#_Linear60);"/>
                    </g>
                    <g transform="matrix(-1,-1.22465e-16,1.22465e-16,-1,203.098,163.226)">
                        <path d="M75.071,101.549l30.839,61.677l-61.677,-0l30.838,-61.677Z" style="fill:url(#_Linear61);"/>
                    </g>
                </g>
                <g transform="matrix(1,2.90699e-16,-2.90699e-16,1,-6.5664,252.626)">
                    <g transform="matrix(1,0,0,1,101.237,-101.549)">
                        <path d="M75.071,101.549l30.839,61.677l-61.677,-0l30.838,-61.677Z" style="fill:url(#_Linear62);"/>
                    </g>
                    <g transform="matrix(-1,-1.22465e-16,1.22465e-16,-1,251.38,163.226)">
                        <path d="M75.071,101.549l30.839,61.677l-61.677,-0l30.838,-61.677Z" style="fill:url(#_Linear63);"/>
                    </g>
                </g>
                <g transform="matrix(1,2.90699e-16,-2.90699e-16,1,5.09614,252.626)">
                    <g transform="matrix(1,0,0,1,146.156,-101.549)">
                        <path d="M75.071,101.549l30.839,61.677l-61.677,-0l30.838,-61.677Z" style="fill:url(#_Linear64);"/>
                    </g>
                    <g transform="matrix(-1,-1.22465e-16,1.22465e-16,-1,296.298,163.226)">
                        <path d="M75.071,101.549l30.839,61.677l-61.677,-0l30.838,-61.677Z" style="fill:url(#_Linear65);"/>
                    </g>
                </g>
                <g transform="matrix(1,2.90699e-16,-2.90699e-16,1,5.68434e-14,252.626)">
                    <g transform="matrix(1,0,0,1,207.832,-101.549)">
                        <path d="M75.071,101.549l30.839,61.677l-61.677,-0l30.838,-61.677Z" style="fill:url(#_Linear66);"/>
                    </g>
                    <g transform="matrix(-1,-1.22465e-16,1.22465e-16,-1,357.975,163.226)">
                        <path d="M75.071,101.549l30.839,61.677l-61.677,-0l30.838,-61.677Z" style="fill:url(#_Linear67);"/>
                    </g>
                </g>
            </g>
        </g>
    </g>
    <defs>
        <radialGradient id="_Radial2" cx="0" cy="0" r="1" gradientUnits="userSpaceOnUse" gradientTransform="matrix(17.1325,0,0,283.465,54.0818,141.732)"><stop offset="0" style="stop-color:rgb(0,86,255);stop-opacity:1"/><stop offset="1" style="stop-color:rgb(0,220,255);stop-opacity:1"/></radialGradient>
        <radialGradient id="_Radial3" cx="0" cy="0" r="1" gradientUnits="userSpaceOnUse" gradientTransform="matrix(17.1325,0,0,283.465,54.0818,141.732)"><stop offset="0" style="stop-color:rgb(0,86,255);stop-opacity:1"/><stop offset="1" style="stop-color:rgb(0,220,255);stop-opacity:1"/></radialGradient>
        <radialGradient id="_Radial4" cx="0" cy="0" r="1" gradientUnits="userSpaceOnUse" gradientTransform="matrix(17.1325,0,0,283.465,54.0818,141.732)"><stop offset="0" style="stop-color:rgb(0,86,255);stop-opacity:1"/><stop offset="1" style="stop-color:rgb(0,220,255);stop-opacity:1"/></radialGradient>
        <radialGradient id="_Radial5" cx="0" cy="0" r="1" gradientUnits="userSpaceOnUse" gradientTransform="matrix(17.1325,0,0,283.465,54.0818,141.732)"><stop offset="0" style="stop-color:rgb(0,86,255);stop-opacity:1"/><stop offset="1" style="stop-color:rgb(0,220,255);stop-opacity:1"/></radialGradient>
        <radialGradient id="_Radial6" cx="0" cy="0" r="1" gradientUnits="userSpaceOnUse" gradientTransform="matrix(17.1325,0,0,283.465,54.0818,141.732)"><stop offset="0" style="stop-color:rgb(0,86,255);stop-opacity:1"/><stop offset="1" style="stop-color:rgb(0,220,255);stop-opacity:1"/></radialGradient>
        <radialGradient id="_Radial7" cx="0" cy="0" r="1" gradientUnits="userSpaceOnUse" gradientTransform="matrix(17.1325,0,0,283.465,54.0818,141.732)"><stop offset="0" style="stop-color:rgb(0,86,255);stop-opacity:1"/><stop offset="1" style="stop-color:rgb(0,220,255);stop-opacity:1"/></radialGradient>
        <linearGradient id="_Linear8" x1="0" y1="0" x2="1" y2="0" gradientUnits="userSpaceOnUse" gradientTransform="matrix(61.6769,0,0,61.6769,44.2329,132.387)"><stop offset="0" style="stop-color:rgb(0,86,255);stop-opacity:1"/><stop offset="1" style="stop-color:rgb(0,220,255);stop-opacity:1"/></linearGradient>
        <linearGradient id="_Linear9" x1="0" y1="0" x2="1" y2="0" gradientUnits="userSpaceOnUse" gradientTransform="matrix(61.6769,0,0,61.6769,44.2329,132.387)"><stop offset="0" style="stop-color:rgb(0,86,255);stop-opacity:1"/><stop offset="1" style="stop-color:rgb(0,220,255);stop-opacity:1"/></linearGradient>
        <linearGradient id="_Linear10" x1="0" y1="0" x2="1" y2="0" gradientUnits="userSpaceOnUse" gradientTransform="matrix(61.6769,0,0,61.6769,44.2329,132.387)"><stop offset="0" style="stop-color:rgb(0,86,255);stop-opacity:1"/><stop offset="1" style="stop-color:rgb(0,220,255);stop-opacity:1"/></linearGradient>
        <linearGradient id="_Linear11" x1="0" y1="0" x2="1" y2="0" gradientUnits="userSpaceOnUse" gradientTransform="matrix(61.6769,0,0,61.6769,44.2329,132.387)"><stop offset="0" style="stop-color:rgb(0,86,255);stop-opacity:1"/><stop offset="1" style="stop-color:rgb(0,220,255);stop-opacity:1"/></linearGradient>
        <linearGradient id="_Linear12" x1="0" y1="0" x2="1" y2="0" gradientUnits="userSpaceOnUse" gradientTransform="matrix(61.6769,0,0,61.6769,44.2329,132.387)"><stop offset="0" style="stop-color:rgb(0,86,255);stop-opacity:1"/><stop offset="1" style="stop-color:rgb(0,220,255);stop-opacity:1"/></linearGradient>
        <linearGradient id="_Linear13" x1="0" y1="0" x2="1" y2="0" gradientUnits="userSpaceOnUse" gradientTransform="matrix(61.6769,0,0,61.6769,44.2329,132.387)"><stop offset="0" style="stop-color:rgb(0,86,255);stop-opacity:1"/><stop offset="1" style="stop-color:rgb(0,220,255);stop-opacity:1"/></linearGradient>
        <linearGradient id="_Linear14" x1="0" y1="0" x2="1" y2="0" gradientUnits="userSpaceOnUse" gradientTransform="matrix(61.6769,0,0,61.6769,44.2329,132.387)"><stop offset="0" style="stop-color:rgb(0,86,255);stop-opacity:1"/><stop offset="1" style="stop-color:rgb(0,220,255);stop-opacity:1"/></linearGradient>
        <linearGradient id="_Linear15" x1="0" y1="0" x2="1" y2="0" gradientUnits="userSpaceOnUse" gradientTransform="matrix(61.6769,0,0,61.6769,44.2329,132.387)"><stop offset="0" style="stop-color:rgb(0,86,255);stop-opacity:1"/><stop offset="1" style="stop-color:rgb(0,220,255);stop-opacity:1"/></linearGradient>
        <linearGradient id="_Linear16" x1="0" y1="0" x2="1" y2="0" gradientUnits="userSpaceOnUse" gradientTransform="matrix(61.6769,0,0,61.6769,44.2329,132.387)"><stop offset="0" style="stop-color:rgb(0,86,255);stop-opacity:1"/><stop offset="1" style="stop-color:rgb(0,220,255);stop-opacity:1"/></linearGradient>
        <linearGradient id="_Linear17" x1="0" y1="0" x2="1" y2="0" gradientUnits="userSpaceOnUse" gradientTransform="matrix(61.6769,0,0,61.6769,44.2329,132.387)"><stop offset="0" style="stop-color:rgb(0,86,255);stop-opacity:1"/><stop offset="1" style="stop-color:rgb(0,220,255);stop-opacity:1"/></linearGradient>
        <linearGradient id="_Linear18" x1="0" y1="0" x2="1" y2="0" gradientUnits="userSpaceOnUse" gradientTransform="matrix(61.6769,0,0,61.6769,44.2329,132.387)"><stop offset="0" style="stop-color:rgb(0,86,255);stop-opacity:1"/><stop offset="1" style="stop-color:rgb(0,220,255);stop-opacity:1"/></linearGradient>
        <linearGradient id="_Linear19" x1="0" y1="0" x2="1" y2="0" gradientUnits="userSpaceOnUse" gradientTransform="matrix(61.6769,0,0,61.6769,44.2329,132.387)"><stop offset="0" style="stop-color:rgb(0,86,255);stop-opacity:1"/><stop offset="1" style="stop-color:rgb(0,220,255);stop-opacity:1"/></linearGradient>
        <linearGradient id="_Linear20" x1="0" y1="0" x2="1" y2="0" gradientUnits="userSpaceOnUse" gradientTransform="matrix(61.6769,0,0,61.6769,44.2329,132.387)"><stop offset="0" style="stop-color:rgb(0,86,255);stop-opacity:1"/><stop offset="1" style="stop-color:rgb(0,220,255);stop-opacity:1"/></linearGradient>
        <linearGradient id="_Linear21" x1="0" y1="0" x2="1" y2="0" gradientUnits="userSpaceOnUse" gradientTransform="matrix(61.6769,0,0,61.6769,44.2329,132.387)"><stop offset="0" style="stop-color:rgb(0,86,255);stop-opacity:1"/><stop offset="1" style="stop-color:rgb(0,220,255);stop-opacity:1"/></linearGradient>
        <linearGradient id="_Linear22" x1="0" y1="0" x2="1" y2="0" gradientUnits="userSpaceOnUse" gradientTransform="matrix(61.6769,0,0,61.6769,44.2329,132.387)"><stop offset="0" style="stop-color:rgb(0,86,255);stop-opacity:1"/><stop offset="1" style="stop-color:rgb(0,220,255);stop-opacity:1"/></linearGradient>
        <linearGradient id="_Linear23" x1="0" y1="0" x2="1" y2="0" gradientUnits="userSpaceOnUse" gradientTransform="matrix(61.6769,0,0,61.6769,44.2329,132.387)"><stop offset="0" style="stop-color:rgb(0,86,255);stop-opacity:1"/><stop offset="1" style="stop-color:rgb(0,220,255);stop-opacity:1"/></linearGradient>
        <linearGradient id="_Linear24" x1="0" y1="0" x2="1" y2="0" gradientUnits="userSpaceOnUse" gradientTransform="matrix(61.6769,0,0,61.6769,44.2329,132.387)"><stop offset="0" style="stop-color:rgb(0,86,255);stop-opacity:1"/><stop offset="1" style="stop-color:rgb(0,220,255);stop-opacity:1"/></linearGradient>
        <linearGradient id="_Linear25" x1="0" y1="0" x2="1" y2="0" gradientUnits="userSpaceOnUse" gradientTransform="matrix(61.6769,0,0,61.6769,44.2329,132.387)"><stop offset="0" style="stop-color:rgb(0,86,255);stop-opacity:1"/><stop offset="1" style="stop-color:rgb(0,220,255);stop-opacity:1"/></linearGradient>
        <linearGradient id="_Linear26" x1="0" y1="0" x2="1" y2="0" gradientUnits="userSpaceOnUse" gradientTransform="matrix(61.6769,0,0,61.6769,44.2329,132.387)"><stop offset="0" style="stop-color:rgb(0,86,255);stop-opacity:1"/><stop offset="1" style="stop-color:rgb(0,220,255);stop-opacity:1"/></linearGradient>
        <linearGradient id="_Linear27" x1="0" y1="0" x2="1" y2="0" gradientUnits="userSpaceOnUse" gradientTransform="matrix(61.6769,0,0,61.6769,44.2329,132.387)"><stop offset="0" style="stop-color:rgb(0,86,255);stop-opacity:1"/><stop offset="1" style="stop-color:rgb(0,220,255);stop-opacity:1"/></linearGradient>
        <linearGradient id="_Linear28" x1="0" y1="0" x2="1" y2="0" gradientUnits="userSpaceOnUse" gradientTransform="matrix(61.6769,0,0,61.6769,44.2329,132.387)"><stop offset="0" style="stop-color:rgb(0,86,255);stop-opacity:1"/><stop offset="1" style="stop-color:rgb(0,220,255);stop-opacity:1"/></linearGradient>
        <linearGradient id="_Linear29" x1="0" y1="0" x2="1" y2="0" gradientUnits="userSpaceOnUse" gradientTransform="matrix(61.6769,0,0,61.6769,44.2329,132.387)"><stop offset="0" style="stop-color:rgb(0,86,255);stop-opacity:1"/><stop offset="1" style="stop-color:rgb(0,220,255);stop-opacity:1"/></linearGradient>
        <linearGradient id="_Linear30" x1="0" y1="0" x2="1" y2="0" gradientUnits="userSpaceOnUse" gradientTransform="matrix(61.6769,0,0,61.6769,44.2329,132.387)"><stop offset="0" style="stop-color:rgb(0,86,255);stop-opacity:1"/><stop offset="1" style="stop-color:rgb(0,220,255);stop-opacity:1"/></linearGradient>
        <linearGradient id="_Linear31" x1="0" y1="0" x2="1" y2="0" gradientUnits="userSpaceOnUse" gradientTransform="matrix(61.6769,0,0,61.6769,44.2329,132.387)"><stop offset="0" style="stop-color:rgb(0,86,255);stop-opacity:1"/><stop offset="1" style="stop-color:rgb(0,220,255);stop-opacity:1"/></linearGradient>
        <linearGradient id="_Linear32" x1="0" y1="0" x2="1" y2="0" gradientUnits="userSpaceOnUse" gradientTransform="matrix(61.6769,0,0,61.6769,44.2329,132.387)"><stop offset="0" style="stop-color:rgb(0,86,255);stop-opacity:1"/><stop offset="1" style="stop-color:rgb(0,220,255);stop-opacity:1"/></linearGradient>
        <linearGradient id="_Linear33" x1="0" y1="0" x2="1" y2="0" gradientUnits="userSpaceOnUse" gradientTransform="matrix(61.6769,0,0,61.6769,44.2329,132.387)"><stop offset="0" style="stop-color:rgb(0,86,255);stop-opacity:1"/><stop offset="1" style="stop-color:rgb(0,220,255);stop-opacity:1"/></linearGradient>
        <linearGradient id="_Linear34" x1="0" y1="0" x2="1" y2="0" gradientUnits="userSpaceOnUse" gradientTransform="matrix(61.6769,0,0,61.6769,44.2329,132.387)"><stop offset="0" style="stop-color:rgb(0,86,255);stop-opacity:1"/><stop offset="1" style="stop-color:rgb(0,220,255);stop-opacity:1"/></linearGradient>
        <linearGradient id="_Linear35" x1="0" y1="0" x2="1" y2="0" gradientUnits="userSpaceOnUse" gradientTransform="matrix(61.6769,0,0,61.6769,44.2329,132.387)"><stop offset="0" style="stop-color:rgb(0,86,255);stop-opacity:1"/><stop offset="1" style="stop-color:rgb(0,220,255);stop-opacity:1"/></linearGradient>
        <linearGradient id="_Linear36" x1="0" y1="0" x2="1" y2="0" gradientUnits="userSpaceOnUse" gradientTransform="matrix(61.6769,0,0,61.6769,44.2329,132.387)"><stop offset="0" style="stop-color:rgb(0,86,255);stop-opacity:1"/><stop offset="1" style="stop-color:rgb(0,220,255);stop-opacity:1"/></linearGradient>
        <linearGradient id="_Linear37" x1="0" y1="0" x2="1" y2="0" gradientUnits="userSpaceOnUse" gradientTransform="matrix(61.6769,0,0,61.6769,44.2329,132.387)"><stop offset="0" style="stop-color:rgb(0,86,255);stop-opacity:1"/><stop offset="1" style="stop-color:rgb(0,220,255);stop-opacity:1"/></linearGradient>
        <linearGradient id="_Linear38" x1="0" y1="0" x2="1" y2="0" gradientUnits="userSpaceOnUse" gradientTransform="matrix(61.6769,0,0,61.6769,44.2329,132.387)"><stop offset="0" style="stop-color:rgb(0,86,255);stop-opacity:1"/><stop offset="1" style="stop-color:rgb(0,220,255);stop-opacity:1"/></linearGradient>
        <linearGradient id="_Linear39" x1="0" y1="0" x2="1" y2="0" gradientUnits="userSpaceOnUse" gradientTransform="matrix(61.6769,0,0,61.6769,44.2329,132.387)"><stop offset="0" style="stop-color:rgb(0,86,255);stop-opacity:1"/><stop offset="1" style="stop-color:rgb(0,220,255);stop-opacity:1"/></linearGradient>
        <linearGradient id="_Linear40" x1="0" y1="0" x2="1" y2="0" gradientUnits="userSpaceOnUse" gradientTransform="matrix(61.6769,0,0,61.6769,44.2329,132.387)"><stop offset="0" style="stop-color:rgb(0,86,255);stop-opacity:1"/><stop offset="1" style="stop-color:rgb(0,220,255);stop-opacity:1"/></linearGradient>
        <linearGradient id="_Linear41" x1="0" y1="0" x2="1" y2="0" gradientUnits="userSpaceOnUse" gradientTransform="matrix(61.6769,0,0,61.6769,44.2329,132.387)"><stop offset="0" style="stop-color:rgb(0,86,255);stop-opacity:1"/><stop offset="1" style="stop-color:rgb(0,220,255);stop-opacity:1"/></linearGradient>
        <linearGradient id="_Linear42" x1="0" y1="0" x2="1" y2="0" gradientUnits="userSpaceOnUse" gradientTransform="matrix(61.6769,0,0,61.6769,44.2329,132.387)"><stop offset="0" style="stop-color:rgb(0,86,255);stop-opacity:1"/><stop offset="1" style="stop-color:rgb(0,220,255);stop-opacity:1"/></linearGradient>
        <linearGradient id="_Linear43" x1="0" y1="0" x2="1" y2="0" gradientUnits="userSpaceOnUse" gradientTransform="matrix(61.6769,0,0,61.6769,44.2329,132.387)"><stop offset="0" style="stop-color:rgb(0,86,255);stop-opacity:1"/><stop offset="1" style="stop-color:rgb(0,220,255);stop-opacity:1"/></linearGradient>
        <linearGradient id="_Linear44" x1="0" y1="0" x2="1" y2="0" gradientUnits="userSpaceOnUse" gradientTransform="matrix(61.6769,0,0,61.6769,44.2329,132.387)"><stop offset="0" style="stop-color:rgb(0,86,255);stop-opacity:1"/><stop offset="1" style="stop-color:rgb(0,220,255);stop-opacity:1"/></linearGradient>
        <linearGradient id="_Linear45" x1="0" y1="0" x2="1" y2="0" gradientUnits="userSpaceOnUse" gradientTransform="matrix(61.6769,0,0,61.6769,44.2329,132.387)"><stop offset="0" style="stop-color:rgb(0,86,255);stop-opacity:1"/><stop offset="1" style="stop-color:rgb(0,220,255);stop-opacity:1"/></linearGradient>
        <linearGradient id="_Linear46" x1="0" y1="0" x2="1" y2="0" gradientUnits="userSpaceOnUse" gradientTransform="matrix(61.6769,0,0,61.6769,44.2329,132.387)"><stop offset="0" style="stop-color:rgb(0,86,255);stop-opacity:1"/><stop offset="1" style="stop-color:rgb(0,220,255);stop-opacity:1"/></linearGradient>
        <linearGradient id="_Linear47" x1="0" y1="0" x2="1" y2="0" gradientUnits="userSpaceOnUse" gradientTransform="matrix(61.6769,0,0,61.6769,44.2329,132.387)"><stop offset="0" style="stop-color:rgb(0,86,255);stop-opacity:1"/><stop offset="1" style="stop-color:rgb(0,220,255);stop-opacity:1"/></linearGradient>
        <linearGradient id="_Linear48" x1="0" y1="0" x2="1" y2="0" gradientUnits="userSpaceOnUse" gradientTransform="matrix(61.6769,0,0,61.6769,44.2329,132.387)"><stop offset="0" style="stop-color:rgb(0,86,255);stop-opacity:1"/><stop offset="1" style="stop-color:rgb(0,220,255);stop-opacity:1"/></linearGradient>
        <linearGradient id="_Linear49" x1="0" y1="0" x2="1" y2="0" gradientUnits="userSpaceOnUse" gradientTransform="matrix(61.6769,0,0,61.6769,44.2329,132.387)"><stop offset="0" style="stop-color:rgb(0,86,255);stop-opacity:1"/><stop offset="1" style="stop-color:rgb(0,220,255);stop-opacity:1"/></linearGradient>
        <linearGradient id="_Linear50" x1="0" y1="0" x2="1" y2="0" gradientUnits="userSpaceOnUse" gradientTransform="matrix(61.6769,0,0,61.6769,44.2329,132.387)"><stop offset="0" style="stop-color:rgb(0,86,255);stop-opacity:1"/><stop offset="1" style="stop-color:rgb(0,220,255);stop-opacity:1"/></linearGradient>
        <linearGradient id="_Linear51" x1="0" y1="0" x2="1" y2="0" gradientUnits="userSpaceOnUse" gradientTransform="matrix(61.6769,0,0,61.6769,44.2329,132.387)"><stop offset="0" style="stop-color:rgb(0,86,255);stop-opacity:1"/><stop offset="1" style="stop-color:rgb(0,220,255);stop-opacity:1"/></linearGradient>
        <linearGradient id="_Linear52" x1="0" y1="0" x2="1" y2="0" gradientUnits="userSpaceOnUse" gradientTransform="matrix(61.6769,0,0,61.6769,44.2329,132.387)"><stop offset="0" style="stop-color:rgb(0,86,255);stop-opacity:1"/><stop offset="1" style="stop-color:rgb(0,220,255);stop-opacity:1"/></linearGradient>
        <linearGradient id="_Linear53" x1="0" y1="0" x2="1" y2="0" gradientUnits="userSpaceOnUse" gradientTransform="matrix(61.6769,0,0,61.6769,44.2329,132.387)"><stop offset="0" style="stop-color:rgb(0,86,255);stop-opacity:1"/><stop offset="1" style="stop-color:rgb(0,220,255);stop-opacity:1"/></linearGradient>
        <linearGradient id="_Linear54" x1="0" y1="0" x2="1" y2="0" gradientUnits="userSpaceOnUse" gradientTransform="matrix(61.6769,0,0,61.6769,44.2329,132.387)"><stop offset="0" style="stop-color:rgb(0,86,255);stop-opacity:1"/><stop offset="1" style="stop-color:rgb(0,220,255);stop-opacity:1"/></linearGradient>
        <linearGradient id="_Linear55" x1="0" y1="0" x2="1" y2="0" gradientUnits="userSpaceOnUse" gradientTransform="matrix(61.6769,0,0,61.6769,44.2329,132.387)"><stop offset="0" style="stop-color:rgb(0,86,255);stop-opacity:1"/><stop offset="1" style="stop-color:rgb(0,220,255);stop-opacity:1"/></linearGradient>
        <linearGradient id="_Linear56" x1="0" y1="0" x2="1" y2="0" gradientUnits="userSpaceOnUse" gradientTransform="matrix(61.6769,0,0,61.6769,44.2329,132.387)"><stop offset="0" style="stop-color:rgb(0,86,255);stop-opacity:1"/><stop offset="1" style="stop-color:rgb(0,220,255);stop-opacity:1"/></linearGradient>
        <linearGradient id="_Linear57" x1="0" y1="0" x2="1" y2="0" gradientUnits="userSpaceOnUse" gradientTransform="matrix(61.6769,0,0,61.6769,44.2329,132.387)"><stop offset="0" style="stop-color:rgb(0,86,255);stop-opacity:1"/><stop offset="1" style="stop-color:rgb(0,220,255);stop-opacity:1"/></linearGradient>
        <linearGradient id="_Linear58" x1="0" y1="0" x2="1" y2="0" gradientUnits="userSpaceOnUse" gradientTransform="matrix(61.6769,0,0,61.6769,44.2329,132.387)"><stop offset="0" style="stop-color:rgb(0,86,255);stop-opacity:1"/><stop offset="1" style="stop-color:rgb(0,220,255);stop-opacity:1"/></linearGradient>
        <linearGradient id="_Linear59" x1="0" y1="0" x2="1" y2="0" gradientUnits="userSpaceOnUse" gradientTransform="matrix(61.6769,0,0,61.6769,44.2329,132.387)"><stop offset="0" style="stop-color:rgb(0,86,255);stop-opacity:1"/><stop offset="1" style="stop-color:rgb(0,220,255);stop-opacity:1"/></linearGradient>
        <linearGradient id="_Linear60" x1="0" y1="0" x2="1" y2="0" gradientUnits="userSpaceOnUse" gradientTransform="matrix(61.6769,0,0,61.6769,44.2329,132.387)"><stop offset="0" style="stop-color:rgb(0,86,255);stop-opacity:1"/><stop offset="1" style="stop-color:rgb(0,220,255);stop-opacity:1"/></linearGradient>
        <linearGradient id="_Linear61" x1="0" y1="0" x2="1" y2="0" gradientUnits="userSpaceOnUse" gradientTransform="matrix(61.6769,0,0,61.6769,44.2329,132.387)"><stop offset="0" style="stop-color:rgb(0,86,255);stop-opacity:1"/><stop offset="1" style="stop-color:rgb(0,220,255);stop-opacity:1"/></linearGradient>
        <linearGradient id="_Linear62" x1="0" y1="0" x2="1" y2="0" gradientUnits="userSpaceOnUse" gradientTransform="matrix(61.6769,0,0,61.6769,44.2329,132.387)"><stop offset="0" style="stop-color:rgb(0,86,255);stop-opacity:1"/><stop offset="1" style="stop-color:rgb(0,220,255);stop-opacity:1"/></linearGradient>
        <linearGradient id="_Linear63" x1="0" y1="0" x2="1" y2="0" gradientUnits="userSpaceOnUse" gradientTransform="matrix(61.6769,0,0,61.6769,44.2329,132.387)"><stop offset="0" style="stop-color:rgb(0,86,255);stop-opacity:1"/><stop offset="1" style="stop-color:rgb(0,220,255);stop-opacity:1"/></linearGradient>
        <linearGradient id="_Linear64" x1="0" y1="0" x2="1" y2="0" gradientUnits="userSpaceOnUse" gradientTransform="matrix(61.6769,0,0,61.6769,44.2329,132.387)"><stop offset="0" style="stop-color:rgb(0,86,255);stop-opacity:1"/><stop offset="1" style="stop-color:rgb(0,220,255);stop-opacity:1"/></linearGradient>
        <linearGradient id="_Linear65" x1="0" y1="0" x2="1" y2="0" gradientUnits="userSpaceOnUse" gradientTransform="matrix(61.6769,0,0,61.6769,44.2329,132.387)"><stop offset="0" style="stop-color:rgb(0,86,255);stop-opacity:1"/><stop offset="1" style="stop-color:rgb(0,220,255);stop-opacity:1"/></linearGradient>
        <linearGradient id="_Linear66" x1="0" y1="0" x2="1" y2="0" gradientUnits="userSpaceOnUse" gradientTransform="matrix(61.6769,0,0,61.6769,44.2329,132.387)"><stop offset="0" style="stop-color:rgb(0,86,255);stop-opacity:1"/><stop offset="1" style="stop-color:rgb(0,220,255);stop-opacity:1"/></linearGradient>
        <linearGradient id="_Linear67" x1="0" y1="0" x2="1" y2="0" gradientUnits="userSpaceOnUse" gradientTransform="matrix(61.6769,0,0,61.6769,44.2329,132.387)"><stop offset="0" style="stop-color:rgb(0,86,255);stop-opacity:1"/><stop offset="1" style="stop-color:rgb(0,220,255);stop-opacity:1"/></linearGradient>
    </defs>
</svg>
