<svg xmlns="http://www.w3.org/2000/svg" viewBox="0 0 1200 1500" role="img" aria-label="Abstract rain and black cherry editorial texture">
  <defs>
    <linearGradient id="bg" x1="0" y1="0" x2="1" y2="1">
      <stop offset="0" stop-color="#160b12"/>
      <stop offset="0.55" stop-color="#3a0f22"/>
      <stop offset="1" stop-color="#08090d"/>
    </linearGradient>
    <radialGradient id="cherry" cx="40%" cy="42%" r="42%">
      <stop offset="0" stop-color="#9f274d" stop-opacity="0.9"/>
      <stop offset="1" stop-color="#9f274d" stop-opacity="0"/>
    </radialGradient>
    <filter id="blur">
      <feGaussianBlur stdDeviation="18"/>
    </filter>
  </defs>
  <rect width="1200" height="1500" fill="url(#bg)"/>
  <circle cx="430" cy="610" r="390" fill="url(#cherry)" filter="url(#blur)"/>
  <circle cx="840" cy="380" r="210" fill="#5b1730" opacity="0.35" filter="url(#blur)"/>
  <g opacity="0.42" stroke="#d8a8bd" stroke-width="3">
    <path d="M180 0v1500"/>
    <path d="M420 0v1500"/>
    <path d="M760 0v1500"/>
    <path d="M1010 0v1500"/>
  </g>
  <g opacity="0.36" stroke="#f1cedd" stroke-linecap="round">
    <path d="M235 120c-18 180-21 270-9 430" stroke-width="5"/>
    <path d="M503 70c-26 230-32 410-15 640" stroke-width="4"/>
    <path d="M815 180c-18 160-20 320-8 510" stroke-width="6"/>
    <path d="M1030 40c-28 260-34 500-10 760" stroke-width="4"/>
  </g>
  <g opacity="0.18" fill="#fff7eb">
    <circle cx="210" cy="1000" r="2"/>
    <circle cx="670" cy="1120" r="2"/>
    <circle cx="970" cy="910" r="2"/>
    <circle cx="470" cy="1320" r="2"/>
  </g>
</svg>
